<?xml version="1.0" encoding="UTF-8"?>
<svg id="Calque_1" data-name="Calque 1" xmlns="http://www.w3.org/2000/svg" viewBox="0 0 93 191.6">
  <defs>
    <style>
      .cls-1 {
        fill: none;
      }

      .cls-2 {
        fill: #ea3f2c;
      }
    </style>
  </defs>
  <path class="cls-2" d="M1.7,0C1.1,0,.6,0,0,0v1.3c.6,0,1.1,0,1.7,0,24.1,0,46.7,9.8,63.7,27.7,17,17.9,26.4,41.6,26.4,66.9s-9.4,49-26.4,66.9c-17,17.9-39.6,27.7-63.7,27.7s-1.1,0-1.7,0v1.3c.6,0,1.1,0,1.7,0,50.4,0,91.3-42.9,91.3-95.8S52.1,0,1.7,0Z"/>
  <path class="cls-2" d="M1.7,8.2c-.6,0-1.1,0-1.7,0v1.3c.6,0,1.1,0,1.7,0,22,0,42.7,9,58.2,25.3,15.5,16.3,24.1,38,24.1,61s-8.6,44.8-24.1,61c-15.5,16.3-36.2,25.3-58.2,25.3s-1.1,0-1.7,0v1.3c.6,0,1.1,0,1.7,0,46.1,0,83.5-39.2,83.5-87.6S47.8,8.2,1.7,8.2Z"/>
  <path class="cls-2" d="M1.7,16.4c-.6,0-1.1,0-1.7,0v1.3c.6,0,1.1,0,1.7,0,19.9,0,38.6,8.2,52.6,22.9,14,14.7,21.8,34.3,21.8,55.2s-7.8,40.5-21.8,55.2c-14,14.7-32.7,22.9-52.6,22.9s-1.1,0-1.7,0v1.3c.6,0,1.1,0,1.7,0,41.8,0,75.6-35.5,75.6-79.4S43.5,16.4,1.7,16.4Z"/>
  <path class="cls-2" d="M1.7,24.7c-.6,0-1.1,0-1.7,0v1.2c.6,0,1.1,0,1.7,0,17.8,0,34.6,7.3,47.1,20.5,12.5,13.1,19.5,30.7,19.5,49.4s-7,36.3-19.5,49.4c-12.5,13.1-29.2,20.5-47.1,20.5s-1.1,0-1.7,0v1.2c.6,0,1.1,0,1.7,0,37.4,0,67.8-31.8,67.8-71.1S39.1,24.7,1.7,24.7Z"/>
  <path class="cls-2" d="M1.7,32.9c-.6,0-1.1,0-1.7,0v1.3c.6,0,1.1,0,1.7,0,15.8,0,30.5,6.5,41.5,18.1,11,11.6,17.2,27.1,17.2,43.6s-6.2,32-17.2,43.6c-11,11.6-25.8,18.1-41.5,18.1s-1.1,0-1.7,0v1.3c.6,0,1.1,0,1.7,0,33.1,0,60-28.2,60-62.9S34.8,32.9,1.7,32.9Z"/>
  <path class="cls-2" d="M1.7,41.1c-.6,0-1.1,0-1.7,0v1.3c.6,0,1.1,0,1.7,0,13.7,0,26.5,5.7,36,15.7,9.5,10,14.9,23.4,14.9,37.8s-5.4,27.8-14.9,37.8c-9.5,10-22.3,15.7-36,15.7s-1.1,0-1.7,0v1.3c.6,0,1.1,0,1.7,0,28.8,0,52.1-24.5,52.1-54.7S30.5,41.1,1.7,41.1Z"/>
  <path class="cls-2" d="M1.7,74c-.6,0-1.1,0-1.7,0v1.3c.6,0,1.1,0,1.7,0,10.8,0,19.6,9.2,19.6,20.5s-8.8,20.5-19.6,20.5-1.1,0-1.7,0v1.3c.6,0,1.1,0,1.7,0,11.5,0,20.8-9.8,20.8-21.8s-9.3-21.8-20.8-21.8ZM1.7,57.6c-.6,0-1.1,0-1.7,0v1.3c.6,0,1.1,0,1.7,0,9.5,0,18.4,4,24.9,10.8,6.5,6.9,10.3,16.1,10.3,26.2s-3.8,19.3-10.3,26.2c-6.5,6.9-15.4,10.8-24.9,10.8s-1.1,0-1.7,0v1.3c.6,0,1.1,0,1.7,0,20.1,0,36.5-17.1,36.5-38.2S21.8,57.6,1.7,57.6ZM1.7,49.3c-.6,0-1.1,0-1.7,0v1.3c.6,0,1.1,0,1.7,0,11.6,0,22.4,4.8,30.5,13.2,8,8.4,12.6,19.8,12.6,32s-4.6,23.5-12.6,32c-8,8.4-18.8,13.2-30.5,13.2s-1.1,0-1.7,0v1.3c.6,0,1.1,0,1.7,0,24.5,0,44.3-20.8,44.3-46.5S26.2,49.3,1.7,49.3ZM1.7,65.8c-.6,0-1.1,0-1.7,0v1.3c.6,0,1.1,0,1.7,0,7.5,0,14.3,3.1,19.4,8.4,5,5.3,8,12.5,8,20.3s-3,15-8,20.3c-5,5.3-11.9,8.4-19.4,8.4s-1.1,0-1.7,0v1.3c.6,0,1.1,0,1.7,0,15.8,0,28.6-13.4,28.6-30s-12.8-30-28.6-30ZM1.7,74c-.6,0-1.1,0-1.7,0v1.3c.6,0,1.1,0,1.7,0,10.8,0,19.6,9.2,19.6,20.5s-8.8,20.5-19.6,20.5-1.1,0-1.7,0v1.3c.6,0,1.1,0,1.7,0,11.5,0,20.8-9.8,20.8-21.8s-9.3-21.8-20.8-21.8ZM1.7,57.6c-.6,0-1.1,0-1.7,0v1.3c.6,0,1.1,0,1.7,0,9.5,0,18.4,4,24.9,10.8,6.5,6.9,10.3,16.1,10.3,26.2s-3.8,19.3-10.3,26.2c-6.5,6.9-15.4,10.8-24.9,10.8s-1.1,0-1.7,0v1.3c.6,0,1.1,0,1.7,0,20.1,0,36.5-17.1,36.5-38.2S21.8,57.6,1.7,57.6ZM1.7,65.8c-.6,0-1.1,0-1.7,0v1.3c.6,0,1.1,0,1.7,0,7.5,0,14.3,3.1,19.4,8.4,5,5.3,8,12.5,8,20.3s-3,15-8,20.3c-5,5.3-11.9,8.4-19.4,8.4s-1.1,0-1.7,0v1.3c.6,0,1.1,0,1.7,0,15.8,0,28.6-13.4,28.6-30s-12.8-30-28.6-30Z"/>
  <path class="cls-1" d="M0,117.5v-1.3M0,75.3v-1.3M0,117.5v-1.3M0,75.3v-1.3M1.7,57.6c-.6,0-1.1,0-1.7,0v1.3c.6,0,1.1,0,1.7,0,9.5,0,18.4,4,24.9,10.8,6.5,6.9,10.3,16.1,10.3,26.2s-3.8,19.3-10.3,26.2c-6.5,6.9-15.4,10.8-24.9,10.8s-1.1,0-1.7,0v1.3c.6,0,1.1,0,1.7,0,20.1,0,36.5-17.1,36.5-38.2S21.8,57.6,1.7,57.6ZM0,125.8v-1.3M0,67.1v-1.3"/>
  <path class="cls-2" d="M1.7,74c-.6,0-1.1,0-1.7,0v1.3c.6,0,1.1,0,1.7,0,10.8,0,19.6,9.2,19.6,20.5s-8.8,20.5-19.6,20.5-1.1,0-1.7,0v1.3c.6,0,1.1,0,1.7,0,11.5,0,20.8-9.8,20.8-21.8s-9.3-21.8-20.8-21.8ZM1.7,74c-.6,0-1.1,0-1.7,0v1.3c.6,0,1.1,0,1.7,0,10.8,0,19.6,9.2,19.6,20.5s-8.8,20.5-19.6,20.5-1.1,0-1.7,0v1.3c.6,0,1.1,0,1.7,0,11.5,0,20.8-9.8,20.8-21.8s-9.3-21.8-20.8-21.8ZM1.7,74c-.6,0-1.1,0-1.7,0v1.3c.6,0,1.1,0,1.7,0,10.8,0,19.6,9.2,19.6,20.5s-8.8,20.5-19.6,20.5-1.1,0-1.7,0v1.3c.6,0,1.1,0,1.7,0,11.5,0,20.8-9.8,20.8-21.8s-9.3-21.8-20.8-21.8ZM1.7,65.8c-.6,0-1.1,0-1.7,0v1.3c.6,0,1.1,0,1.7,0,7.5,0,14.3,3.1,19.4,8.4,5,5.3,8,12.5,8,20.3s-3,15-8,20.3c-5,5.3-11.9,8.4-19.4,8.4s-1.1,0-1.7,0v1.3c.6,0,1.1,0,1.7,0,15.8,0,28.6-13.4,28.6-30s-12.8-30-28.6-30ZM1.7,74c-.6,0-1.1,0-1.7,0v1.3c.6,0,1.1,0,1.7,0,10.8,0,19.6,9.2,19.6,20.5s-8.8,20.5-19.6,20.5-1.1,0-1.7,0v1.3c.6,0,1.1,0,1.7,0,11.5,0,20.8-9.8,20.8-21.8s-9.3-21.8-20.8-21.8ZM1.7,74c-.6,0-1.1,0-1.7,0v1.3c.6,0,1.1,0,1.7,0,10.8,0,19.6,9.2,19.6,20.5s-8.8,20.5-19.6,20.5-1.1,0-1.7,0v1.3c.6,0,1.1,0,1.7,0,11.5,0,20.8-9.8,20.8-21.8s-9.3-21.8-20.8-21.8Z"/>
  <path class="cls-2" d="M1.7,74c-.6,0-1.1,0-1.7,0v1.3c.6,0,1.1,0,1.7,0,10.8,0,19.6,9.2,19.6,20.5s-8.8,20.5-19.6,20.5-1.1,0-1.7,0v1.3c.6,0,1.1,0,1.7,0,11.5,0,20.8-9.8,20.8-21.8s-9.3-21.8-20.8-21.8Z"/>
</svg>