<svg width="14" height="11" viewBox="0 0 14 11" fill="none" xmlns="http://www.w3.org/2000/svg">
<path d="M1.3125 0H12.6875C13.4258 0 14 0.601562 14 1.3125C14 1.72266 13.8086 2.10547 13.4805 2.35156L7.79297 6.61719C7.32812 6.97266 6.67188 6.97266 6.20703 6.61719L0.519531 2.35156C0.191406 2.10547 0 1.72266 0 1.3125C0 0.601562 0.601562 0 1.3125 0ZM0 3.60938L5.41406 7.68359C6.37109 8.36719 7.65625 8.36719 8.58594 7.68359L14 3.60938V8.75C14 9.70703 13.207 10.5 12.25 10.5H1.75C0.792969 10.5 0 9.70703 0 8.75V3.60938Z" fill="white"/>
</svg>
