<svg width="20" height="14" viewBox="0 0 20 14" fill="none" xmlns="http://www.w3.org/2000/svg">
<g clip-path="url(#clip0_523_1086)">
<path d="M18.993 6.00335H1.00703C0.710381 6.00335 0.468385 6.09324 0.28103 6.27303C0.0936761 6.45282 0 6.69123 0 6.98827C0 7.30095 0.0936761 7.54718 0.28103 7.72697C0.468385 7.90676 0.710381 7.99665 1.00703 7.99665H18.993C19.2896 7.99665 19.5316 7.90676 19.719 7.72697C19.9063 7.54718 20 7.30095 20 6.98827C20 6.69123 19.9063 6.45282 19.719 6.27303C19.5316 6.09324 19.2896 6.00335 18.993 6.00335ZM1.00703 1.9933H18.993C19.2896 1.9933 19.5316 1.90341 19.719 1.72362C19.9063 1.54383 20 1.2976 20 0.984925C20 0.687883 19.9063 0.449471 19.719 0.269682C19.5316 0.0898927 19.2896 0 18.993 0H1.00703C0.710381 0 0.468385 0.0898927 0.28103 0.269682C0.0936761 0.449471 0 0.687883 0 0.984925C0 1.2976 0.0936761 1.54383 0.28103 1.72362C0.468385 1.90341 0.710381 1.9933 1.00703 1.9933ZM18.993 12.0067H1.00703C0.710381 12.0067 0.468385 12.0966 0.28103 12.2764C0.0936761 12.4562 0 12.6946 0 12.9916C0 13.3043 0.0936761 13.5505 0.28103 13.7303C0.468385 13.9101 0.710381 14 1.00703 14H18.993C19.2896 14 19.5316 13.9101 19.719 13.7303C19.9063 13.5505 20 13.3043 20 12.9916C20 12.6946 19.9063 12.4562 19.719 12.2764C19.5316 12.0966 19.2896 12.0067 18.993 12.0067Z" fill="white"/>
</g>
<defs>
<clipPath id="clip0_523_1086">
<rect width="20" height="14" fill="white"/>
</clipPath>
</defs>
</svg>
