<svg width="15" height="15" viewBox="0 0 15 15" fill="none" xmlns="http://www.w3.org/2000/svg">
<path d="M4.73047 0.792969L5.85156 3.44531C6.04297 3.91016 5.90625 4.42969 5.52344 4.73047L4.32031 5.71484C5.19531 7.68359 6.75391 9.26953 8.66797 10.2266L9.73438 8.94141C10.0352 8.55859 10.5547 8.42188 11.0195 8.61328L13.6719 9.73438C14.1914 9.95312 14.4648 10.5 14.3281 11.0469L14.2734 11.1836C13.8086 12.9609 12.0859 14.4648 10.0078 14.0273C5.22266 13.0156 1.44922 9.24219 0.4375 4.45703C0 2.37891 1.50391 0.683594 3.28125 0.191406L3.41797 0.136719C3.96484 0 4.51172 0.273438 4.73047 0.792969Z" fill="white"/>
</svg>
