<svg width="16" height="16" viewBox="0 0 16 16" fill="none" xmlns="http://www.w3.org/2000/svg">
<path d="M7.75 0C12 0 15.5 3.5 15.5 7.75C15.5 12.0312 12 15.5 7.75 15.5C3.46875 15.5 0 12.0312 0 7.75C0 3.5 3.46875 0 7.75 0ZM10.875 11.4062C11.125 11.4062 11.3438 11.2188 11.3438 10.9375C11.3438 10.6562 11.25 10.5312 11.0625 10.4062C8.8125 9.09375 6.21875 9.03125 3.65625 9.59375C3.40625 9.65625 3.21875 9.8125 3.21875 10.125C3.21875 10.375 3.40625 10.625 3.71875 10.625C3.8125 10.625 3.96875 10.5625 4.09375 10.5312C6.34375 10.0938 8.59375 10.125 10.5625 11.3125C10.6562 11.375 10.75 11.4062 10.875 11.4062ZM11.7188 9.375C12.0625 9.375 12.3125 9.09375 12.3438 8.75C12.3438 8.5 12.2188 8.28125 11.9688 8.15625C10.4375 7.21875 8.46875 6.71875 6.4375 6.71875C5.15625 6.71875 4.25 6.90625 3.375 7.15625C3.0625 7.25 2.90625 7.46875 2.90625 7.78125C2.90625 8.125 3.1875 8.40625 3.5 8.40625C3.65625 8.40625 3.71875 8.34375 3.875 8.3125C6.46875 7.625 9.375 8.09375 11.3438 9.25C11.4375 9.28125 11.5625 9.375 11.7188 9.375ZM12.6875 7C13.0625 7 13.4062 6.6875 13.4062 6.25C13.4062 5.875 13.25 5.6875 13 5.5625C11.2812 4.53125 8.875 4.0625 6.59375 4.0625C5.25 4.0625 4.03125 4.21875 2.9375 4.53125C2.65625 4.625 2.375 4.84375 2.375 5.28125C2.375 5.6875 2.6875 6.03125 3.09375 6.03125C3.25 6.03125 3.40625 5.96875 3.5 5.9375C6.09375 5.21875 10.0625 5.53125 12.2812 6.875C12.4375 6.9375 12.5312 7 12.6875 7Z" fill="white"/>
</svg>
