<svg width="114" height="50" viewBox="0 0 114 50" fill="none" xmlns="http://www.w3.org/2000/svg">
<path d="M1.87835 33V8.87442H11.2012L16.1641 19.6792L21.1271 8.87442H30.4499V33H23.8499V17.3701L18.9903 27.4683H13.3208L8.46119 17.3356V33H1.87835ZM45.8731 33.448C38.4114 33.448 33.3278 28.1232 33.3278 21.0406C33.3278 13.6651 38.4286 8.42637 45.8731 8.42637C53.352 8.42637 58.4356 13.6651 58.4356 21.0406C58.4356 28.1232 53.3175 33.448 45.8731 33.448ZM45.8731 27.2443C49.2679 27.2443 51.4909 24.3493 51.4909 21.0061C51.4909 17.1633 49.2851 14.6301 45.8731 14.6301C42.4783 14.6301 40.2725 17.1633 40.2725 21.0061C40.2725 24.3493 42.4955 27.2443 45.8731 27.2443ZM73.0009 33.448C65.5392 33.448 60.4556 28.1232 60.4556 21.0406C60.4556 13.6651 65.5564 8.42637 73.0009 8.42637C80.4798 8.42637 85.5634 13.6651 85.5634 21.0406C85.5634 28.1232 80.4454 33.448 73.0009 33.448ZM73.0009 27.2443C76.3957 27.2443 78.6187 24.3493 78.6187 21.0061C78.6187 17.1633 76.4129 14.6301 73.0009 14.6301C69.6061 14.6301 67.4003 17.1633 67.4003 21.0061C67.4003 24.3493 69.6233 27.2443 73.0009 27.2443ZM88.4623 33V8.87442H95.7516L104.316 22.7294V8.87442H110.761V33H103.472L94.9072 19.1278V33H88.4623Z" fill="white"/>
<path d="M0.965023 46.3604V38.9371H3.80707C5.14856 38.9371 5.9333 39.7696 5.9333 40.9785C5.9333 42.1874 5.20158 43.0199 3.79646 43.0199H3.62679L6.64912 46.3604H5.80605L2.81023 43.0199H1.64372V46.3604H0.965023ZM3.78056 42.3942C4.80391 42.3942 5.2493 41.795 5.2493 40.9785C5.2493 40.1566 4.76679 39.5628 3.73814 39.5628H1.64372V42.3942H3.78056ZM9.37352 45.7347H13.7585V46.3604H8.69482V38.9371H13.6684V39.5628H9.37352V42.1821H11.9876V42.8078H9.37352V45.7347ZM18.9695 46.4982C16.663 46.4982 15.3162 44.7856 15.3162 42.6593C15.3162 40.4377 16.6895 38.7992 18.9536 38.7992C20.8147 38.7992 22.066 40.0294 22.3206 41.3762H21.61C21.3025 40.321 20.3905 39.4249 18.9536 39.4249C17.0606 39.4249 16.0055 40.8512 16.0055 42.6593C16.0055 44.4144 17.0713 45.8725 18.9695 45.8725C20.3905 45.8725 21.276 45.0189 21.6313 44.0061H22.3418C21.9494 45.4059 20.7299 46.4982 18.9695 46.4982ZM28.1102 46.4982C25.8938 46.4982 24.3402 44.8651 24.3402 42.6699C24.3402 40.4589 25.8991 38.7992 28.1102 38.7992C30.3319 38.7992 31.8748 40.4589 31.8748 42.6699C31.8748 44.8651 30.2948 46.4982 28.1102 46.4982ZM28.1102 45.8725C29.9077 45.8725 31.1855 44.4515 31.1855 42.6699C31.1855 40.8194 29.9395 39.4249 28.1102 39.4249C26.2862 39.4249 25.0295 40.8194 25.0295 42.6699C25.0295 44.4515 26.2968 45.8725 28.1102 45.8725ZM34.4007 46.3604V38.9371H37.2428C38.5843 38.9371 39.369 39.7696 39.369 40.9785C39.369 42.1874 38.6373 43.0199 37.2322 43.0199H37.0625L40.0848 46.3604H39.2418L36.246 43.0199H35.0794V46.3604H34.4007ZM37.2163 42.3942C38.2396 42.3942 38.685 41.795 38.685 40.9785C38.685 40.1566 38.2025 39.5628 37.1739 39.5628H35.0794V42.3942H37.2163ZM42.1305 46.3604V38.9371H44.5749C46.9769 38.9371 48.3131 40.3051 48.3131 42.654C48.3131 44.8969 47.1147 46.3604 44.5537 46.3604H42.1305ZM44.7075 45.7347C46.3194 45.7347 47.6237 44.8333 47.6237 42.654C47.6237 40.3581 46.2239 39.5628 44.7075 39.5628H42.8092V45.7347H44.7075ZM53.2297 46.4982C51.7186 46.4982 50.393 45.7506 50.2816 44.1917H50.9921C51.0929 45.3529 52.1056 45.8778 53.2456 45.8778C54.3485 45.8778 55.1916 45.4006 55.1916 44.4833C55.1916 43.6615 54.7833 43.2691 53.7493 42.951L52.3442 42.5109C51.2148 42.1556 50.5945 41.6307 50.5945 40.6179C50.5945 39.6476 51.3739 38.7992 53.0176 38.7992C54.4758 38.7992 55.6476 39.531 55.743 40.9679H55.0325C54.9424 39.9074 54.094 39.4143 53.007 39.4143C51.9094 39.4143 51.2785 39.8915 51.2785 40.5755C51.2785 41.2701 51.7079 41.5989 52.5881 41.8799L54.0569 42.3465C55.2923 42.7442 55.8809 43.3009 55.8809 44.478C55.8809 45.7612 54.778 46.4982 53.2297 46.4982Z" fill="white"/>
<path d="M69.278 43.7145C69.278 45.5862 68.2493 46.4982 66.5844 46.4982C64.9513 46.4982 63.8908 45.5862 63.8908 43.7145V38.9371H64.5695V43.688C64.5695 45.1461 65.2694 45.8725 66.5844 45.8725C67.9365 45.8725 68.5993 45.1461 68.5993 43.688V38.9371H69.278V43.7145ZM76.6827 46.3604L72.881 42.951V46.3604H72.2023V38.9371H72.881V42.3571L76.529 38.9371H77.4145L73.4642 42.6222L77.6265 46.3604H76.6827ZM79.58 46.3604V38.9371H82.422C83.7635 38.9371 84.5482 39.7696 84.5482 40.9785C84.5482 42.1874 83.8165 43.0199 82.4114 43.0199H82.2417L85.2641 46.3604H84.421L81.4252 43.0199H80.2587V46.3604H79.58ZM82.3955 42.3942C83.4188 42.3942 83.8642 41.795 83.8642 40.9785C83.8642 40.1566 83.3817 39.5628 82.3531 39.5628H80.2587V42.3942H82.3955ZM86.5144 46.3604L89.6216 38.9371H90.3056L93.4127 46.3604H92.7022L91.9387 44.4939H87.9831L87.2143 46.3604H86.5144ZM88.2324 43.8789H91.6842L89.9609 39.6741L88.2324 43.8789ZM95.6091 46.3604V38.9371H96.2878V46.3604H95.6091ZM99.2793 46.3604V38.9371H100.08L104.46 45.4377V38.9371H105.128V46.3604H104.332L99.9527 39.865V46.3604H99.2793ZM108.806 45.7347H113.191V46.3604H108.128V38.9371H113.101V39.5628H108.806V42.1821H111.42V42.8078H108.806V45.7347Z" fill="#FF9700"/>
</svg>
