<?xml version="1.0" encoding="UTF-8"?>
<svg id="Calque_1" data-name="Calque 1" xmlns="http://www.w3.org/2000/svg" viewBox="0 0 54 105">
  <defs>
    <style>
      .cls-1 {
        fill: #e75130;
      }
    </style>
  </defs>
  <path class="cls-1" d="M1,0C.7,0,.3,0,0,0v.7c.3,0,.7,0,1,0,14,0,27.1,5.4,37,15.2,9.9,9.8,15.3,22.8,15.3,36.6s-5.4,26.9-15.3,36.6c-9.9,9.8-23,15.2-37,15.2s-.7,0-1,0v.7c.3,0,.7,0,1,0,29.3,0,53-23.5,53-52.5S30.3,0,1,0Z"/>
  <path class="cls-1" d="M1,4.5c-.3,0-.7,0-1,0v.7c.3,0,.7,0,1,0,12.8,0,24.8,4.9,33.8,13.9,9,8.9,14,20.8,14,33.5s-5,24.5-14,33.5c-9,8.9-21,13.9-33.8,13.9s-.7,0-1,0v.7c.3,0,.7,0,1,0,26.8,0,48.5-21.5,48.5-48S27.8,4.5,1,4.5Z"/>
  <path class="cls-1" d="M1,9c-.3,0-.7,0-1,0v.7c.3,0,.7,0,1,0,11.6,0,22.4,4.5,30.6,12.5,8.1,8.1,12.7,18.8,12.7,30.3s-4.5,22.2-12.7,30.3c-8.1,8.1-19,12.5-30.6,12.5s-.7,0-1,0v.7c.3,0,.7,0,1,0,24.3,0,43.9-19.5,43.9-43.5S25.2,9,1,9Z"/>
  <path class="cls-1" d="M1,13.5c-.3,0-.7,0-1,0v.7c.3,0,.7,0,1,0,10.4,0,20.1,4,27.3,11.2,7.3,7.2,11.3,16.8,11.3,27.1s-4.1,19.9-11.3,27.1c-7.3,7.2-17,11.2-27.3,11.2s-.7,0-1,0v.7c.3,0,.7,0,1,0,21.7,0,39.4-17.5,39.4-39S22.7,13.5,1,13.5Z"/>
  <path class="cls-1" d="M1,18c-.3,0-.7,0-1,0v.7c.3,0,.7,0,1,0,9.2,0,17.7,3.6,24.1,9.9,6.4,6.3,10,14.8,10,23.9s-3.6,17.6-10,23.9c-6.4,6.3-15,9.9-24.1,9.9s-.7,0-1,0v.7c.3,0,.7,0,1,0,19.2,0,34.8-15.4,34.8-34.5S20.2,18,1,18Z"/>
  <path class="cls-1" d="M1,22.5c-.3,0-.7,0-1,0v.7c.3,0,.7,0,1,0,8,0,15.4,3.1,20.9,8.6,5.5,5.5,8.7,12.8,8.7,20.7s-3.1,15.2-8.7,20.7-13,8.6-20.9,8.6-.7,0-1,0v.7c.3,0,.7,0,1,0,16.7,0,30.3-13.4,30.3-30S17.7,22.5,1,22.5Z"/>
  <path class="cls-1" d="M1,40.6c-.3,0-.7,0-1,0v.7c.3,0,.7,0,1,0,6.3,0,11.4,5.1,11.4,11.3s-5.1,11.3-11.4,11.3-.7,0-1,0v.7c.3,0,.7,0,1,0,6.7,0,12.1-5.3,12.1-11.9s-5.4-11.9-12.1-11.9ZM1,31.5c-.3,0-.7,0-1,0v.7c.3,0,.7,0,1,0,5.5,0,10.7,2.2,14.5,5.9s6,8.8,6,14.3-2.2,10.6-6,14.3c-3.8,3.8-8.9,5.9-14.5,5.9s-.7,0-1,0v.7c.3,0,.7,0,1,0,11.7,0,21.2-9.4,21.2-21S12.7,31.5,1,31.5ZM1,27c-.3,0-.7,0-1,0v.7c.3,0,.7,0,1,0,6.7,0,13,2.6,17.7,7.3,4.7,4.6,7.3,10.8,7.3,17.5s-2.7,12.9-7.3,17.5c-4.7,4.6-10.9,7.3-17.7,7.3s-.7,0-1,0v.7c.3,0,.7,0,1,0,14.2,0,25.7-11.4,25.7-25.5S15.2,27,1,27ZM1,36c-.3,0-.7,0-1,0v.7c.3,0,.7,0,1,0,4.3,0,8.3,1.7,11.3,4.6,2.9,2.9,4.7,6.8,4.7,11.1s-1.7,8.2-4.7,11.1c-2.9,2.9-6.9,4.6-11.3,4.6s-.7,0-1,0v.7c.3,0,.7,0,1,0,9.2,0,16.6-7.4,16.6-16.5S10.2,36,1,36ZM1,40.6c-.3,0-.7,0-1,0v.7c.3,0,.7,0,1,0,6.3,0,11.4,5.1,11.4,11.3s-5.1,11.3-11.4,11.3-.7,0-1,0v.7c.3,0,.7,0,1,0,6.7,0,12.1-5.3,12.1-11.9s-5.4-11.9-12.1-11.9ZM1,31.5c-.3,0-.7,0-1,0v.7c.3,0,.7,0,1,0,5.5,0,10.7,2.2,14.5,5.9s6,8.8,6,14.3-2.2,10.6-6,14.3c-3.8,3.8-8.9,5.9-14.5,5.9s-.7,0-1,0v.7c.3,0,.7,0,1,0,11.7,0,21.2-9.4,21.2-21S12.7,31.5,1,31.5ZM1,36c-.3,0-.7,0-1,0v.7c.3,0,.7,0,1,0,4.3,0,8.3,1.7,11.3,4.6,2.9,2.9,4.7,6.8,4.7,11.1s-1.7,8.2-4.7,11.1c-2.9,2.9-6.9,4.6-11.3,4.6s-.7,0-1,0v.7c.3,0,.7,0,1,0,9.2,0,16.6-7.4,16.6-16.5S10.2,36,1,36Z"/>
  <path class="cls-1" d="M0,64.4v-.7M0,41.3v-.7M0,64.4v-.7M0,41.3v-.7M1,31.5c-.3,0-.7,0-1,0v.7c.3,0,.7,0,1,0,5.5,0,10.7,2.2,14.5,5.9s6,8.8,6,14.3-2.2,10.6-6,14.3c-3.8,3.8-8.9,5.9-14.5,5.9s-.7,0-1,0v.7c.3,0,.7,0,1,0,11.7,0,21.2-9.4,21.2-21S12.7,31.5,1,31.5ZM0,68.9v-.7M0,36.8v-.7"/>
  <path class="cls-1" d="M1,40.6c-.3,0-.7,0-1,0v.7c.3,0,.7,0,1,0,6.3,0,11.4,5.1,11.4,11.3s-5.1,11.3-11.4,11.3-.7,0-1,0v.7c.3,0,.7,0,1,0,6.7,0,12.1-5.3,12.1-11.9s-5.4-11.9-12.1-11.9ZM1,40.6c-.3,0-.7,0-1,0v.7c.3,0,.7,0,1,0,6.3,0,11.4,5.1,11.4,11.3s-5.1,11.3-11.4,11.3-.7,0-1,0v.7c.3,0,.7,0,1,0,6.7,0,12.1-5.3,12.1-11.9s-5.4-11.9-12.1-11.9ZM1,40.6c-.3,0-.7,0-1,0v.7c.3,0,.7,0,1,0,6.3,0,11.4,5.1,11.4,11.3s-5.1,11.3-11.4,11.3-.7,0-1,0v.7c.3,0,.7,0,1,0,6.7,0,12.1-5.3,12.1-11.9s-5.4-11.9-12.1-11.9ZM1,36c-.3,0-.7,0-1,0v.7c.3,0,.7,0,1,0,4.3,0,8.3,1.7,11.3,4.6,2.9,2.9,4.7,6.8,4.7,11.1s-1.7,8.2-4.7,11.1c-2.9,2.9-6.9,4.6-11.3,4.6s-.7,0-1,0v.7c.3,0,.7,0,1,0,9.2,0,16.6-7.4,16.6-16.5S10.2,36,1,36ZM1,40.6c-.3,0-.7,0-1,0v.7c.3,0,.7,0,1,0,6.3,0,11.4,5.1,11.4,11.3s-5.1,11.3-11.4,11.3-.7,0-1,0v.7c.3,0,.7,0,1,0,6.7,0,12.1-5.3,12.1-11.9s-5.4-11.9-12.1-11.9ZM1,40.6c-.3,0-.7,0-1,0v.7c.3,0,.7,0,1,0,6.3,0,11.4,5.1,11.4,11.3s-5.1,11.3-11.4,11.3-.7,0-1,0v.7c.3,0,.7,0,1,0,6.7,0,12.1-5.3,12.1-11.9s-5.4-11.9-12.1-11.9Z"/>
  <path class="cls-1" d="M1,40.6c-.3,0-.7,0-1,0v.7c.3,0,.7,0,1,0,6.3,0,11.4,5.1,11.4,11.3s-5.1,11.3-11.4,11.3-.7,0-1,0v.7c.3,0,.7,0,1,0,6.7,0,12.1-5.3,12.1-11.9s-5.4-11.9-12.1-11.9Z"/>
</svg>